<svg id="Layer_1" data-name="Layer 1" xmlns="http://www.w3.org/2000/svg" viewBox="0 0 455.54 142.08"><defs><style>.cls-1{fill:#231f20;}.cls-2{fill:#545353;}</style></defs><title>AdsFinder_logos_all</title><polygon class="cls-1" points="30.02 43.09 30.31 43.13 31.11 42.96 31.33 43.02 31.45 43.18 31.46 43.35 31.44 43.48 31.43 43.55 31.42 43.64 31.41 43.82 31.45 44 31.57 44.02 31.71 44 31.85 44.01 32.09 44.22 32.29 44.48 32.49 44.59 32.72 44.38 32.68 44.13 32.71 43.82 32.78 43.53 32.86 43.39 32.86 43.27 32.78 43.17 32.78 43.17 32.73 43.17 32.67 43.16 32.6 43.19 32.55 43.2 32.43 43.27 32.43 43.13 32.49 43.04 32.52 42.94 32.52 42.92 32.52 42.92 32.53 42.78 32.5 42.63 32.72 42.63 32.5 42.15 32.3 42.05 31.37 42.02 31.37 42.02 31.15 42.14 30.88 42.35 30.61 42.43 30.38 42.15 30.38 42.15 30.38 42.15 30.29 42.25 30.2 42.28 30.11 42.25 30.02 42.15 30.02 42.15 30.02 42.15 29.9 42.51 29.72 42.69 29.49 42.76 29.21 42.77 29.21 42.89 29.21 42.89 29.49 42.9 30.02 43.09"/><polygon class="cls-1" points="28.6 79.38 28.8 79.26 28.87 79.12 28.83 79.01 28.71 79 28.66 79.01 28.65 79.01 28.57 78.93 28.49 78.91 28.29 78.9 28.2 79 27.65 79.37 27.6 79.43 27.47 79.61 27.5 79.74 27.72 79.71 27.82 79.61 28.19 79.57 28.6 79.38"/><polygon class="cls-1" points="34.04 84.1 34.09 84.07 34.17 83.95 34.17 83.95 34.17 83.95 34.09 83.89 33.98 83.92 33.91 83.92 33.54 83.85 33.3 83.88 33.09 83.95 33.08 83.96 32.94 84.08 32.91 84.25 33.07 84.33 33.18 84.39 34.02 84.11 34.04 84.1"/><polygon class="cls-1" points="33.52 55 33.59 55.03 33.61 55.17 33.68 55.2 33.68 55.2 33.68 55.03 33.65 54.91 33.6 54.88 33.57 54.79 33.52 54.77 33.5 54.81 33.44 54.81 33.39 54.87 33.4 54.94 33.45 54.96 33.52 55"/><polygon class="cls-1" points="35.03 55.68 35.09 55.81 35.12 56.07 35.31 56.28 35.68 56.17 35.89 55.84 35.63 55.41 35.54 55.31 35.4 55.28 35.25 55.32 35.12 55.41 35.02 55.58 35.03 55.68"/><polygon class="cls-1" points="74.48 51.82 74.54 51.76 74.55 51.67 74.61 51.61 74.55 51.51 74.3 51.52 74.24 51.64 74.34 51.77 74.48 51.82"/><polygon class="cls-1" points="37.44 87.17 37.15 87.36 37.05 87.51 37.05 87.51 37.06 87.55 37.12 87.65 37.12 87.65 37.12 87.65 37.19 87.63 37.26 87.5 37.3 87.52 37.38 87.53 37.38 87.53 37.51 87.46 37.61 87.33 37.6 87.18 37.44 87.17"/><polygon class="cls-1" points="73.03 53.83 73.03 53.83 73.03 53.83 72.85 53.94 72.8 53.96 72.69 54.08 72.62 54.22 72.7 54.29 72.7 54.29 72.7 54.29 72.73 54.24 72.78 54.15 72.92 54.02 72.92 54.02 73.03 53.95 73.13 53.84 73.26 53.8 73.17 53.77 73.03 53.83"/><polygon class="cls-1" points="31.52 46.21 32.27 46.18 32.46 46.09 32.57 45.96 32.59 45.89 32.53 45.83 32.39 45.74 32.28 45.63 32.19 45.59 32.19 45.59 32.19 45.59 31.99 45.78 31.5 45.98 31.48 46.04 31.48 46.04 31.49 46.1 31.48 46.16 31.52 46.21"/><polygon class="cls-1" points="72.09 18.64 72.36 18.67 72.61 18.88 72.56 18.96 72.55 19.03 72.55 19.12 72.53 19.27 72.61 19.15 72.71 18.94 72.78 18.71 72.75 18.51 72.64 18.45 72.09 18.37 71.95 18.39 71.82 18.44 71.7 18.52 71.59 18.63 71.83 18.67 72.09 18.64"/><polygon class="cls-1" points="74.64 60.9 74.19 60.39 74.06 60.12 74.1 59.84 74.17 59.61 74.19 59.57 74.19 59.55 74.24 59.15 74.26 58.72 74.21 58.43 74.25 58.4 74.26 58.4 74.26 58.4 74.26 58.39 74.28 58.33 73.92 57.56 73.77 57.35 73.85 57.03 73.78 56.83 73.66 56.68 73.55 56.49 73.49 56.23 73.47 55.98 73.48 55.59 73.49 55.57 73.52 55.52 73.57 55.37 73.57 55.23 73.44 55.17 73.36 55.15 73.25 55.05 72.95 54.98 72.81 54.86 72.61 54.55 72.52 54.47 72.36 54.29 72.28 54.14 72.31 53.94 72.94 53.46 73.01 53.44 73.2 53.34 73.3 53.33 73.34 53.36 73.47 53.54 73.52 53.58 73.67 53.66 73.81 53.78 73.81 53.78 73.94 53.78 74.04 53.51 74.06 53.46 74.06 53.46 73.87 53.33 73.43 53.3 73.26 53.22 73.3 53.16 73.36 53.03 73.4 52.97 73.3 52.84 73.27 52.63 73.22 52.44 72.53 52.11 72.7 51.97 72.92 51.9 73.11 51.93 73.19 52.11 73.28 51.97 73.4 51.65 73.48 51.5 73.51 51.36 73.56 51.24 73.74 50.95 73.81 50.7 73.78 50.44 73.7 50.2 73.62 50.03 73.41 49.88 73.09 49.72 72.8 49.52 72.65 49.17 72.61 49.09 72.61 49.09 72.34 48.9 72.23 48.8 72.16 48.61 72.09 48.36 72.04 48.09 71.96 46.84 72.02 46.35 72.23 46.11 72 45.92 71.89 45.64 71.9 45.32 71.92 45.28 72.02 45 72.02 44.87 71.23 44.76 70.87 44.58 70.64 44.26 70.57 43.94 70.58 43.61 70.58 43.59 70.64 43.08 70.71 42.78 70.84 42.54 70.9 42.37 70.9 42.37 70.9 42.37 70.78 42.28 70.78 42.15 71.34 42.22 72.08 42.55 72.08 42.55 72.08 42.55 72.23 42.52 72.38 42.64 72.63 42.8 72.89 42.9 72.89 42.9 73.08 42.83 73.42 42.41 73.46 42.19 73.26 41.89 73.18 41.84 73.09 41.8 72.86 41.78 72.8 41.72 72.64 41.47 72.57 41.41 72.4 41.32 71.73 40.67 71.57 40.53 71.41 40.55 71.26 40.63 71.12 40.66 70.99 40.57 70.91 40.45 70.82 40.43 70.68 40.67 70.67 40.79 70.69 40.92 70.69 41.08 70.65 41.23 70.58 41.29 70.33 41.33 70.06 41.43 69.98 41.43 69.91 41.38 69.85 41.3 69.81 41.23 69.8 41.19 69.5 41.21 68.6 41.55 68.51 41.54 68.35 41.47 68.27 41.49 68.21 41.55 68.1 41.72 68.04 41.76 67.89 41.68 67.6 41.33 67.44 41.19 67.61 40.77 67.62 40.57 67.51 40.36 67.75 40.05 67.85 39.71 67.78 39.39 67.54 39.1 67.32 38.91 67.21 38.85 67.08 38.83 66.97 38.9 66.89 39.02 66.8 39.11 66.67 39.1 66.44 38.95 66.22 38.76 66.01 38.51 65.83 38.23 65.77 38.04 65.73 37.87 65.68 37.71 65.59 37.6 65.21 37.41 65.4 37.31 65.48 37.12 65.46 36.86 65.24 36.23 65.17 36.16 65.04 36.15 64.96 36.1 64.86 35.79 64.79 35.67 64.13 35.12 63.77 34.93 63.43 34.96 63.12 35.27 62.61 36.09 62.26 36.35 62.17 36.36 61.98 36.32 61.91 36.36 61.89 36.45 61.92 36.56 61.96 36.65 61.99 36.68 61.99 36.69 61.91 36.86 61.9 36.86 61.84 36.93 61.76 36.91 61.71 36.92 61.73 37.12 62.09 37.29 62.03 37.54 62.41 37.87 62.26 38.07 62.33 38.37 62.1 38.52 61.52 38.67 61.39 38.77 61.31 38.86 61.24 38.98 61.18 39.16 61.23 39.23 61.33 39.31 61.34 39.41 61.13 39.52 61.18 39.7 61.15 39.88 61.08 40.04 60.98 40.15 60.83 40.23 60.79 40.15 60.8 39.99 60.8 39.78 60.82 39.62 60.85 39.49 60.81 39.44 60.49 39.63 60.41 39.73 60.41 39.85 60.66 40.36 60.48 40.38 59.96 40.2 59.8 40.24 59.76 40.23 59.74 40.15 59.66 39.99 59.57 39.97 59.46 39.98 59.43 39.95 59.55 39.8 59.28 39.78 58.84 40.12 58.61 40.17 57.48 39.9 57.35 39.81 57.32 39.66 57.3 39.5 57.23 39.38 56.46 38.81 56.27 38.77 55.64 38.81 55.05 38.73 54.84 38.6 54.7 38.33 54.66 37.52 54.59 37.23 54.44 37.11 54.02 37.05 53.84 36.98 53.66 36.77 53.52 36.51 53.29 35.94 52.98 35.94 52.72 35.8 52.47 35.53 52.01 34.89 51.76 34.61 51.66 34.46 51.63 34.31 51.6 34.17 51.47 34.05 51.72 33.91 52.28 33.74 52.55 33.59 52.67 33.47 52.72 33.39 52.85 33.12 53.07 32.8 53.29 32.55 54.1 32.74 54.52 32.76 54.92 32.6 55.98 31.59 56.42 31.44 56.4 31.07 56.28 31.04 56.12 31.17 55.94 31.25 55.77 31.19 55.43 30.88 55.28 30.79 55.21 30.82 55.04 30.95 54.95 30.94 54.87 30.85 54.76 30.62 54.67 30.56 54.49 30.51 54.31 30.39 54.22 30.2 54.3 29.93 54.24 29.89 54.06 29.74 54.59 29.48 54.96 29.11 55.1 29.12 55.41 29.38 55.76 29.57 56.12 29.54 56.48 29.34 56.85 28.97 57.04 28.86 57.41 28.96 57.73 28.86 57.93 28.97 58.04 28.98 58.18 28.92 58.18 28.88 58.12 28.81 58.09 28.68 58.11 28.22 58.18 27.97 58.95 27 59.12 26.68 59.23 26.28 59.23 26.09 59.18 25.62 59.22 25.4 59.31 25.29 59.52 25.2 59.61 25.05 59.62 24.9 59.56 24.43 59.6 24.3 59.66 24.27 59.69 24.25 59.65 24.08 59.95 23.61 60.05 23.49 60.18 23.39 60.86 23.29 60.95 23.19 61.03 23.06 61.12 22.94 61.25 22.89 61.33 22.87 61.36 22.79 61.49 22.45 61.66 22.14 62.12 21.49 62.27 21.36 62.55 21.27 62.9 21.08 63.27 20.72 63.6 20.5 63.96 20.35 64.26 20.29 64.57 20.1 64.61 19.71 64.46 19.43 64.22 19.54 64 19.37 63.52 19.16 63.12 19.09 62.59 18.84 62.43 18.7 61.88 17.86 61.74 17.74 61.33 17.51 61.16 17.49 60.42 17.22 60.07 17.01 59.87 16.97 59.87 16.97 59.7 17.08 59.8 17.2 59.92 17.32 60.21 17.49 60.23 17.92 60.55 18.33 61.23 18.88 61.02 19.03 60.78 19.02 60.55 18.91 60.35 18.76 60.39 18.77 60.42 18.77 60.49 18.77 60.64 18.76 60.64 18.76 60.64 18.76 60.48 18.42 60.27 18.32 60.27 18.32 60.27 18.32 60.05 18.38 59.65 18.83 59.41 18.83 59.18 18.69 58.97 18.51 58.97 18.51 58.98 18.54 58.99 18.61 58.99 18.61 59 18.66 59.01 18.7 59.04 18.76 58.87 18.88 58.72 18.86 58.56 18.78 58.39 18.76 58.39 18.76 58.39 18.76 58.5 19.06 58.47 19.43 58.4 19.64 58.36 19.76 58.23 19.88 58.12 19.97 58.12 20.16 58.16 20.35 58.2 20.48 58.28 20.58 58.54 20.8 58.96 21.46 59.04 21.49 59.04 21.94 58.93 22.2 58.88 22.37 58.93 22.45 59.13 22.55 59.18 22.81 59.11 23.11 58.97 23.34 58.79 23.43 58.55 23.49 58.33 23.59 58.24 23.79 58.13 23.81 58.13 23.81 58.13 23.81 57.12 24.8 56.93 24.93 56.71 25 56.71 24.87 56.77 24.82 56.86 24.74 57.22 24.24 57.74 23.86 57.87 23.72 57.99 23.33 57.78 23.22 57.14 23.34 57.14 23.22 57.73 22.84 57.92 22.6 58.04 22.49 58.2 22.45 58.31 22.31 58.31 22.28 58.37 22 58.35 21.7 58.2 21.56 58.09 21.47 58.04 21.39 57.96 21.27 57.88 21.02 57.87 20.8 57.56 20.64 57.43 20.52 57.37 20.35 57.39 20.24 57.44 19.96 57.46 19.67 57.4 19.54 57.31 19.45 57.23 19.27 57.11 19.09 56.93 19.02 56.8 19.07 56.42 19.4 56.25 19.46 55.87 19.4 55.87 19.5 55.58 20.1 55.54 20.33 55.67 20.45 55.98 20.54 56.08 20.66 56.17 20.79 56.27 20.9 56.42 20.93 56.35 20.73 56.28 20.44 56.26 20.17 56.34 20.04 56.48 20.1 56.57 20.3 56.62 20.55 56.63 20.73 56.69 20.84 56.78 21.13 56.85 21.43 56.82 21.56 56.74 21.66 56.57 22.15 56.49 22.32 56.5 22.15 56.56 21.82 56.56 21.68 56.53 21.55 56.44 21.31 56.42 21.24 56.33 21.07 56.13 20.88 55.9 20.73 55.76 20.66 55.67 20.68 55.56 20.8 55.47 20.8 55.39 20.74 55.34 20.65 55.3 20.57 55.28 20.54 55.3 20.41 55.55 19.54 55.5 19.5 55.49 19.49 55.47 19.4 55.2 19.72 54.92 19.94 54.75 20.17 54.81 20.54 55.05 20.89 55.08 21.09 54.96 21.43 54.85 21.57 54.76 21.59 54.64 21.55 54.64 21.55 54.44 21.56 54.44 21.43 54.57 21.41 54.68 21.34 54.76 21.22 54.81 21.04 54.81 21.04 54.81 21.04 54.65 21.09 54.49 21.22 54.45 21.23 54.4 21.25 54.44 21.04 54.44 20.93 54.3 20.66 54.3 20.66 54.19 20.73 54.02 20.8 54 20.8 53.87 20.82 53.79 20.73 53.73 20.68 53.73 20.68 53.28 20.93 53.28 20.8 53.76 20.46 53.85 20.25 53.57 20.04 53.33 20.08 53.2 20.35 53.1 20.65 52.95 20.8 52.75 20.87 52.1 21.28 51.78 21.74 51.66 21.84 51.6 21.75 51.63 21.58 51.68 21.46 51.75 21.34 51.82 21.18 51.65 21.22 51.32 21.39 51.13 21.43 50.52 21.17 50.36 21.18 50.26 21.37 50.09 21.94 49.96 22.06 49.96 22.06 49.91 22.21 49.95 22.53 50.08 23.08 49.99 23.18 49.92 23.52 49.86 23.59 49.76 23.5 49.73 23.07 49.63 22.96 49.55 23.03 49.34 23.48 49.22 23.55 49.12 23.54 49.08 23.56 49.03 23.59 48.98 23.85 48.98 23.85 49.05 23.85 49.02 23.91 48.91 24.1 48.79 24 48.67 23.97 48.67 23.97 48.55 24.01 48.47 24.1 48.47 24.24 48.87 24.74 49.11 24.98 49.42 25.11 49.16 25.29 49.02 25.34 48.87 25.37 48.73 25.31 48.63 25.2 48.58 25.17 48.53 25.15 48.39 25.25 48.53 25.6 48.72 25.98 48.97 26.24 49.27 26.26 49.27 26.26 49.28 26.2 49.28 26.14 49.28 26.08 49.3 25.95 49.34 25.87 49.4 25.85 49.59 25.87 49.74 25.94 49.85 26.26 50 26.38 49.84 26.43 49.42 26.35 49.42 26.35 49.42 26.35 49.27 26.51 49.27 26.81 49.44 27.01 49.67 27.11 49.86 27.14 49.86 27.27 49.64 27.26 49.05 27.02 48.55 27.12 48.31 27.1 48.1 26.89 48.1 26.89 48.1 26.89 47.98 26.99 47.84 27.18 47.74 27.27 47.61 27.3 47.5 27.3 47.5 27.3 47.49 27.3 47.43 27.34 47.38 27.52 47.63 27.55 48.02 27.82 48.41 27.97 48.98 28.53 48.78 28.64 48.59 28.53 48.42 28.31 48.29 28.09 48.16 28.04 47.69 28.07 47.57 28.12 47.52 28.14 47.72 28.35 48.47 28.53 48.47 28.65 48.18 28.64 47.62 28.46 46.55 28.43 46.28 28.53 45.52 29.09 45.4 29.23 45.37 29.45 45.29 29.58 45.16 29.65 45.02 29.66 45.01 29.67 44.86 29.71 44.83 29.83 44.83 29.83 44.91 29.96 45.04 30.05 45.04 30.16 44.99 30.23 44.96 30.28 44.96 30.29 44.93 30.36 44.9 30.43 45.09 30.42 45.97 30.76 46.07 30.86 45.98 31.04 46.17 31.17 46.97 31.17 47.19 31.32 47.32 31.36 47.44 31.11 47.56 31.06 47.82 31.04 47.88 31.01 47.99 30.93 48.06 30.92 48.15 30.95 48.16 31.02 48.15 31.1 48.2 31.23 48.3 31.38 48.41 31.47 48.47 31.36 48.55 31.01 48.73 30.76 48.87 30.76 48.83 31.17 48.91 31.17 49.06 31 49.2 31.16 49.23 31.42 49.09 31.56 48.88 31.61 48.72 31.75 48.47 32.05 48.47 32.17 48.62 32.13 48.77 32.04 48.91 31.91 49.29 31.5 49.41 31.36 49.54 31.3 49.68 31.23 49.95 30.87 50.11 30.79 50.27 30.85 50.34 30.98 50.33 31.15 50.22 31.31 50.22 31.42 50.22 31.42 50.44 31.3 50.82 30.98 51.55 30.86 51.76 30.75 51.97 30.55 51.99 30.61 51.99 30.63 51.99 30.63 52.01 30.63 52.04 30.67 51.98 30.83 51.86 31.42 51.73 31.39 51.65 31.32 51.57 31.24 51.46 31.17 51.46 31.17 51.46 31.17 51.49 31.62 51.31 31.78 50.99 32.07 51.02 32.43 50.44 32.92 50.58 33.09 50.73 33.16 51.09 33.18 51.09 33.31 50.75 33.39 50.75 33.39 50.75 33.39 50.27 33.73 49.24 33.93 48.92 34.09 48.61 34.31 48.6 34.2 48.59 34.19 48.54 34.18 48.52 34.07 48.44 33.87 48.36 33.81 48.32 34.12 48.31 34.49 48.28 34.63 48.21 34.69 48.04 34.75 46.8 35.63 46.69 35.66 46.5 35.72 46.37 35.8 46.26 35.92 46.21 36.06 46.23 36.25 46.28 36.31 47.34 36.31 47.57 36.37 47.8 36.51 47.88 36.68 47.67 36.81 47.42 36.61 47.29 36.56 47.23 36.75 47.26 36.89 47.34 36.95 47.34 36.95 47.55 36.92 47.75 36.96 47.96 37.05 48.15 37.2 48.23 37.31 48.32 37.43 47.91 37.35 47.57 37.28 47.51 37.32 47.45 37.36 47.38 37.45 47.24 37.41 47.01 37.3 46.91 37.37 46.83 37.51 46.79 37.58 46.72 37.67 46.72 37.81 46.88 37.81 47.07 37.87 47.24 37.97 47.3 38.11 47.37 38.31 47.54 38.41 47.73 38.47 47.85 38.54 47.88 38.55 47.88 38.67 47.54 38.66 47.37 38.7 47.23 38.81 47.01 38.47 46.89 38.35 46.58 38.23 46.52 38.05 46.49 37.84 46.42 37.67 46.13 37.52 45.48 37.65 45.18 37.43 44.96 37.6 44.82 37.65 44.73 37.67 44.21 37.67 44.17 37.66 44.05 37.63 43.81 37.46 43.64 37.4 43.45 37.29 43.33 37.18 43.33 37.18 43.27 37.22 43.23 37.26 43.22 37.27 43.17 37.29 43.14 37.3 42.5 37.15 42.14 37.19 41.98 37.49 41.91 37.97 41.72 38.33 41.49 38.58 41.25 38.67 41.31 38.94 41.3 39.2 41.26 39.47 41.25 39.8 41.25 39.8 41.18 39.8 41.18 39.44 41.09 39.17 40.96 38.96 40.44 38.49 40.4 38.32 40.6 38.18 40.6 38.05 40.37 37.93 40.37 37.81 40.43 37.72 40.45 37.59 40.44 37.44 40.37 37.3 40.35 37.35 40.24 37.39 40.19 37.4 40.05 37.43 39.99 37.35 39.91 37.01 39.83 36.92 39.73 36.92 39.26 36.69 39.13 36.67 39.03 36.75 38.95 36.85 38.82 36.95 38.7 37.02 38.59 37.05 37.75 36.92 37.66 36.87 37.52 36.71 37.42 36.68 37.3 36.7 37.1 36.79 36.99 36.81 35.16 36.68 34.95 36.62 34.55 36.36 34.32 36.31 34.32 36.31 33.7 36.48 33.68 36.61 33.74 36.87 33.86 37.06 34.42 37.18 34.62 37.3 34.38 37.25 34.38 37.25 34.28 37.26 34.18 37.3 34.18 37.43 34.4 37.55 34.48 37.65 34.54 37.81 34.31 37.77 34.13 37.64 33.94 37.49 33.78 37.45 33.7 37.43 33.54 37.53 33.37 37.79 33.3 38.08 33.45 38.3 33.29 38.4 33.15 38.6 33 38.74 32.83 38.61 32.63 38.52 32.38 38.51 32.22 38.4 32.23 38.34 32.28 38.05 32.55 38.3 32.82 38.33 33.07 38.13 33.31 37.67 33.26 37.66 33.24 37.64 33.24 37.62 33.23 37.56 33.23 37.56 33.23 37.56 33.12 37.64 33.03 37.64 32.94 37.57 32.86 37.43 32.72 37.53 32.53 37.51 32.34 37.41 32.2 37.3 32.17 37.21 32.15 37.09 32.13 36.99 32.07 36.92 32.07 36.92 31.96 36.94 31.92 37.01 31.89 37.1 31.85 37.18 31.38 37.45 31.26 37.56 31.18 37.77 31.12 38.01 31.02 38.18 30.82 38.18 30.94 38.34 31.07 38.41 31.39 38.42 31.41 38.42 31.28 38.64 31.16 38.76 31.07 38.91 31.04 39.23 30.98 39.44 30.74 39.96 30.68 40.17 30.7 40.52 30.79 40.7 30.95 40.78 31.15 40.79 31.15 40.79 31.33 40.72 31.31 40.56 31.18 40.4 31.04 40.3 31.24 40.18 31.33 40.17 31.31 39.83 31.27 39.74 31.25 39.72 31.11 39.67 31.11 39.55 31.34 39.42 31.47 39.4 31.62 39.42 31.62 39.42 31.62 39.42 31.62 39.29 31.57 39.23 31.48 39.05 31.68 39.09 31.86 39.02 31.92 38.87 31.77 38.67 31.93 38.48 32.17 38.58 32.72 39.05 32.65 39.2 32.55 39.27 32.43 39.27 32.28 39.17 32.28 39.17 32.28 39.17 32.65 39.59 32.79 39.8 32.72 39.76 32.57 39.71 32.5 39.67 32.56 39.88 32.69 40.05 33.02 40.3 32.83 40.41 32.34 40.55 32.14 40.54 32.35 41.02 32.62 41.24 32.92 41.18 33.23 40.79 33.23 40.79 33.16 40.79 33.16 40.67 33.27 40.65 33.3 40.63 33.32 40.63 33.32 40.63 33.32 40.63 33.34 40.56 33.31 40.41 33.58 40.31 33.71 40.32 33.81 40.41 33.51 40.67 33.59 40.79 33.45 40.87 33.36 40.98 33.36 41.09 33.51 41.15 33.39 41.31 33.25 41.36 33.13 41.44 33.13 41.44 33.08 41.71 33.12 41.98 33.2 42.13 33.27 42.23 33.31 42.34 33.34 42.4 33.52 42.38 33.59 42.4 33.64 42.48 33.64 42.56 33.63 42.64 33.76 43.09 33.83 43.23 33.95 43.27 33.89 43.13 33.89 43.02 34.04 43.05 34.14 43.15 34.23 43.28 34.32 43.39 34.28 43.61 34.3 43.8 34.3 43.95 34.21 44.01 34.14 43.95 34.09 43.91 34.09 43.87 34.05 43.49 33.92 43.39 33.78 43.36 33.54 43.18 33.45 43.13 32.94 43.27 32.94 43.39 33.02 43.39 33.02 43.51 33.01 43.53 32.98 43.63 32.99 43.71 33.02 43.87 32.84 44.01 32.84 44.03 32.77 44.51 32.64 44.61 32.99 44.99 32.99 44.99 33.57 44.85 34.62 44.26 36.13 44.26 36.44 44.38 36.5 44.32 36.54 44.28 36.59 44.27 36.66 44.26 36.63 44.42 36.59 44.56 36.52 44.67 36.44 44.75 36.63 44.86 36.72 44.87 36.35 45.17 36.24 45.34 36.29 45.48 36.29 45.61 36.22 45.62 36.17 45.65 36.12 45.69 36.07 45.73 36.5 45.95 36.66 45.97 36.66 46.11 34.68 46.47 34.56 46.41 34.35 46.27 34.35 46.27 34.28 46.28 34.18 46.4 34.06 46.44 33.81 46.47 33.52 46.58 33.12 46.65 33.02 46.72 33.11 47.05 33.05 47.33 32.93 47.62 32.86 48 33.02 48.8 33.88 49.34 34.34 49.52 34.34 49.52 35.09 49.45 35.27 49.55 35.27 49.66 34.44 49.6 33.93 49.51 33.7 49.35 33.59 49.3 33.45 49.32 33.08 49.55 32.95 49.58 32.78 49.63 31.95 49.55 31.95 49.55 31.95 49.55 31.55 49.64 31.7 49.85 32.35 50.29 32.29 50.33 32.24 50.36 32.09 50.59 31.99 50.64 31.83 50.36 31.77 50.29 31.29 50.16 30.82 50.16 30.84 50.24 30.87 50.44 30.9 50.52 30.63 50.51 30.37 50.43 30.12 50.42 29.88 50.64 29.98 50.73 30.09 50.72 30.11 50.72 30.42 50.64 30.52 50.73 30.61 50.93 30.67 51.14 30.68 51.26 30.9 51.51 31.3 51.68 31.7 51.77 31.91 51.74 31.82 51.94 31.61 51.9 31.35 51.78 31.11 51.74 31.17 51.91 31.25 52.02 31.36 52.09 31.48 52.11 31.48 52.24 31.32 52.41 31.16 52.44 30.75 52.35 30.75 52.35 30.53 52.38 30.37 52.49 30.26 52.68 30.16 52.97 30.16 52.97 30.36 52.97 30.45 52.93 30.53 52.85 30.69 53.02 30.94 53.05 31.37 52.97 31.52 53.02 31.59 53.15 31.66 53.31 31.77 53.46 31.89 53.53 31.96 53.55 32.03 53.56 32.45 53.56 32.63 53.48 32.65 53.47 32.75 53.46 32.87 53.39 32.87 53.39 32.86 53.22 32.83 53.02 32.86 52.85 32.98 52.73 33.08 52.75 33.17 52.81 33.27 52.85 33.37 52.8 33.45 52.71 33.53 52.62 33.66 52.6 33.57 52.77 33.36 52.92 33.31 53.08 33.37 53.28 33.53 53.3 33.53 53.3 33.67 53.21 33.66 53.08 33.9 52.9 34.02 52.85 34.18 52.85 34.18 52.97 33.95 53.08 33.95 53.22 34.32 53.22 34.32 53.33 34.31 53.34 34.16 53.47 33.73 53.77 33.55 53.82 33.41 53.83 33.37 53.84 33.32 53.85 33.24 53.92 33.2 54.05 33.18 54.25 33.13 54.48 33.08 54.55 33.25 54.67 33.71 54.56 33.92 54.74 34.1 54.95 34.1 54.95 34.27 54.95 34.77 54.72 34.94 54.51 35.2 54.05 35.31 53.77 35.4 53.64 35.52 53.58 35.67 53.39 35.7 53.36 35.74 53.33 35.78 53.35 35.83 53.42 35.89 53.46 35.9 53.59 35.79 53.91 35.74 54.24 35.93 54.44 36.13 54.36 36.22 54.13 36.23 54.1 36.23 54.1 36.21 53.79 36.07 53.58 36.23 53.47 36.42 53.44 36.8 53.46 36.4 53.69 36.29 53.82 36.72 54.24 36.69 54.31 36.66 54.34 36.59 54.51 36.54 54.55 36.47 54.53 36.36 54.46 36.33 54.44 36.33 54.44 36.11 54.59 36.2 55.4 36 55.76 36 55.9 36.17 56.11 36.17 56.11 36.33 56.08 36.46 55.85 36.5 55.47 36.6 55.14 36.69 55.14 36.78 55.14 36.86 55.34 36.66 55.65 36.8 55.8 36.89 55.98 37.01 56.14 37.24 56.24 37.68 56.25 37.92 56.18 38.08 56.07 38.41 55.9 41.86 55.61 42.23 55.45 42.45 55.41 43.29 55.53 43.29 55.65 43.15 55.72 42.88 55.81 42.78 55.9 42.78 56 43.08 56 43.08 56.13 42.87 56.14 42.38 56.26 42.2 56.38 42.35 56.45 43.4 56.49 43.49 56.47 43.52 56.45 43.69 56.38 43.8 56.38 43.45 56.64 43.28 56.84 43.14 57.1 43.21 57.21 43.26 57.35 43.36 57.71 43.2 57.67 43.07 57.6 42.96 57.49 42.85 57.35 42.91 57.18 42.91 57.18 42.82 57.16 42.7 57.21 42.58 57.35 42.44 57.33 42.2 57.21 42.2 57.35 42.64 57.6 42.64 57.71 42.43 57.68 42.11 57.41 41.94 57.35 41.94 57.35 41.32 57.47 41.32 57.6 41.32 57.6 41.79 57.75 41.94 57.91 41.94 57.92 41.91 58.19 41.65 58.04 41.42 58.1 41.2 58.24 40.99 58.33 40.76 58.22 40.26 57.75 40.01 57.6 39.79 57.69 39.6 58 39.46 58.38 39.28 58.67 39.05 58.92 38.48 60.01 38.56 60.13 38.44 60.21 38.39 60.27 38.34 60.34 38.03 60.87 37.9 61.03 37.6 61.34 37.88 61.44 37.88 61.44 38.72 61.39 38.91 61.46 38.8 61.8 38.13 62.44 38.12 62.67 38.12 62.79 38.03 62.87 37.99 62.98 37.95 63.11 37.89 63.27 37.79 63.43 37.68 63.57 37.59 63.66 37.57 63.68 37.5 63.73 37.45 63.75 37.53 63.88 37.51 64 37.48 64.02 37.48 64.03 37.53 64.11 37.45 64.27 37.42 64.47 37.38 64.64 37.27 64.71 37.16 64.73 36.96 64.82 36.84 64.84 36.5 64.8 36.37 64.84 36.26 64.89 36.11 65.02 36.03 65.06 36 65.08 36.04 65.25 36.07 65.32 33.91 67.39 33.37 67.54 32.91 67.86 32.72 67.96 32.72 68.06 34.62 67.79 34.91 67.59 34.98 67.61 35.08 67.68 35.16 67.65 35.2 67.41 35.3 67.21 35.52 67.1 36 67 36.71 66.66 36.8 66.62 36.8 66.62 36.76 66.48 36.69 66.38 36.6 66.31 36.5 66.27 36.5 66.15 36.89 66.14 37.01 66.24 36.95 66.51 37.1 66.66 37.46 66.71 37.53 66.81 37.62 66.96 37.83 67.05 38.06 67.1 38.6 67.08 39.38 66.83 39.71 66.62 39.72 66.86 39.54 67.04 39.31 67.19 39.14 67.35 39.25 67.42 39.38 67.47 39.51 67.49 39.64 67.47 39.75 67.39 39.92 67.16 39.97 67.11 40.92 67 41.12 66.89 42.06 65.61 42.41 64.96 42.43 64.73 42.68 64.5 42.85 64.4 43.01 64.31 43.29 64.24 43.21 64.34 43.09 64.57 43 64.71 43.17 64.77 43.19 64.95 43.19 64.96 43.18 65.16 43.22 65.32 43.22 65.44 43.09 65.56 43.1 65.67 43.22 65.75 43.4 65.78 44.09 65.67 44.44 65.75 45.14 66.03 45.33 66.03 44.97 66.15 43.11 66.39 42.99 66.46 42.91 66.61 42.84 66.77 42.78 66.87 42.62 66.94 42.41 66.99 42.21 66.94 42.13 66.75 42.13 66.75 42.13 66.75 41.93 66.88 40.63 67.3 40.48 67.41 40.34 67.56 40.17 67.63 39.79 67.7 39.11 67.69 39.11 67.69 38.96 67.76 38.87 67.74 38.02 67.7 37.93 67.72 37.86 67.78 37.79 67.89 37.68 67.97 37.57 67.94 37.47 67.86 37.39 67.82 37.39 67.82 36.54 67.82 36.11 67.7 36 67.75 35.99 67.75 35.91 67.83 35.84 67.88 35.78 67.82 35.78 67.82 35.78 67.82 35.53 68.13 35.49 68.25 35.52 68.46 35.5 68.56 35.41 68.67 35.41 68.79 35.48 68.88 35.5 68.97 35.48 69.06 35.41 69.15 35.59 69.13 35.76 69.16 35.89 69.28 35.93 69.51 35.75 69.42 35.47 69.34 35.2 69.34 35.01 69.45 34.86 69.69 34.8 69.74 34.71 69.81 33.66 70.3 32.94 70.35 32.73 70.42 32.58 70.58 32.77 70.8 33.07 70.94 33.63 71.05 33.8 71.22 33.77 72.07 33.89 72.36 33.62 72.47 33.51 72.47 33.51 72.6 33.6 72.61 33.67 72.64 33.81 72.72 33.65 72.8 33.54 72.8 33.44 72.72 33.31 72.6 33.31 72.6 33.31 72.6 33.33 72.76 33.37 72.89 33.43 73 33.51 73.08 33.51 73.08 33.51 73.08 33.67 72.97 33.83 73.01 34.18 73.2 34.51 73.21 34.67 73.25 34.83 73.43 34.06 73.54 33.89 73.43 33.95 73.36 34.03 73.31 33.9 73.25 33.9 73.25 33.9 73.25 33.77 73.32 33.55 73.61 33.4 73.7 32.96 73.69 32.6 73.61 32.39 73.51 32.27 73.46 32.15 73.44 32.1 73.43 31.95 73.34 31.9 73.12 31.9 72.85 31.85 72.6 31.9 72.42 31.78 72.36 31.78 72.36 31.41 72.36 31.52 72.51 31.66 72.7 31.57 73.06 31.28 73.38 30.97 73.56 30.27 73.66 30.25 73.56 30.38 72.9 30.21 72.76 29.11 73.08 28.99 73.17 28.75 73.54 28.69 73.6 28.63 73.66 28.43 73.71 28.27 73.71 28.14 73.77 28.04 74.04 28.09 74.07 28.2 74.15 28.07 74.3 28.08 74.43 28.11 74.55 28.08 74.69 27.98 74.75 27.84 74.7 27.61 74.5 27.69 74.27 27.69 74.27 27.49 74.33 27.26 74.45 27.13 74.61 27.24 74.75 27.24 74.86 27.05 75.04 26.95 75.1 27.05 75.44 27.07 75.73 27.14 75.94 27.4 76.04 27.62 76 28.05 75.8 28.27 75.79 28.27 75.79 28.27 75.79 28.16 75.74 28.13 75.68 28.12 75.57 28.37 75.57 28.88 75.74 28.92 75.75 29.15 75.79 29.15 75.79 29.15 75.69 28.97 75.59 28.88 75.57 28.88 75.57 28.78 75.57 28.78 75.46 29.07 75.36 29.19 75.38 29.47 75.66 29.55 75.61 29.55 75.61 29.55 75.61 29.62 75.5 29.73 75.46 29.84 75.56 29.95 75.73 30.06 75.83 30.06 75.83 30.31 75.67 31.74 75.31 32.07 75.33 32.22 75.38 32.36 75.45 32.46 75.56 32.52 75.84 32.57 75.77 32.64 75.57 32.5 75.21 34.62 75.1 34.24 75.33 34.3 75.38 34.4 75.5 34.47 75.57 33.68 75.67 33.35 75.66 33.02 75.46 32.79 76.48 32.83 76.64 32.68 76.65 32.53 76.61 32.43 76.48 32.43 76.17 32.43 76.17 32.43 76.17 32.35 76.17 32.12 76.76 31.69 77.01 30.68 77.23 30 77.55 29.73 77.74 29.43 77.81 29.21 77.92 29.21 77.92 29.29 78.17 29.16 78.24 29.08 78.27 28.9 78.34 28.78 78.42 28.78 78.52 28.78 78.52 28.98 78.55 29.09 78.72 29.18 78.91 29.33 79 29.37 79.06 29.37 79.17 29.34 79.29 29.25 79.34 29.07 79.34 28.18 79.66 27.83 79.71 27.83 79.83 27.83 79.83 27.83 79.83 27.87 79.83 27.94 79.82 27.96 79.82 27.98 79.83 27.97 79.91 27.95 79.95 27.93 80 27.91 80.06 27.92 80.07 27.95 80.07 27.97 80.1 27.98 80.18 27.91 80.37 28.04 80.4 28.26 80.38 28.41 80.41 28.48 80.64 28.36 81.14 28.41 81.36 28.58 81.26 28.91 80.95 29.04 80.88 29.16 80.79 29.42 80.38 29.55 80.28 29.98 80.49 30.16 80.93 30.06 81.34 29.66 81.47 29.66 81.47 29.66 81.47 30.66 81.94 30.6 82.17 30.6 82.17 30.6 82.17 30.86 82.09 31.14 81.92 31.41 81.7 31.62 81.47 31.79 81.55 31.86 81.59 32.11 81.49 32.58 81.12 32.7 81.08 32.83 81.06 32.95 81.04 33.03 81.01 33.08 80.99 33.13 80.94 33.15 80.92 33.17 80.88 33.21 80.82 33.3 80.75 33.45 80.75 33.43 80.84 33.4 81.01 33.4 81.04 33.37 81.12 33.49 81.09 33.81 80.88 33.74 80.75 33.91 80.7 34.26 80.7 34.26 80.7 34.32 80.59 34.41 80.48 34.62 80.35 35.73 79.93 36.12 79.88 36.5 79.83 36.5 79.95 36.17 80.07 35.54 80.42 35.2 80.53 35.1 80.52 34.92 80.51 34.86 80.52 34.83 80.53 34.82 80.55 34.78 80.6 34.65 80.83 34.44 80.95 34.17 81.27 34.03 81.36 34.03 81.36 34.03 81.47 34.03 81.47 34.24 81.57 34.32 81.58 34.32 81.7 33.92 81.71 33.84 81.7 33.73 81.68 33.59 81.58 33.57 81.87 33.45 82.04 33.27 82.13 33.08 82.17 33.14 82.08 33.2 81.9 33.23 81.82 33.23 81.82 33.23 81.82 32.95 81.89 32.58 82.07 32.25 82.33 32.07 82.64 32.07 82.64 32.5 82.64 32.5 82.77 32 83.25 31.77 83.35 31.34 83.31 31.11 83.36 30.97 83.57 31.14 83.56 31.29 83.61 31.38 83.73 31.37 83.77 31.33 83.94 31.37 83.96 31.39 83.96 31.41 83.98 31.41 84.05 31.24 84.15 30.52 84.35 30.45 84.4 30.45 84.42 30.42 84.49 30.41 84.6 30.39 84.69 30.31 84.75 30.38 84.88 30.38 84.88 30.38 84.88 30.57 84.69 30.81 84.58 31.3 84.52 31.41 84.54 31.61 84.62 31.73 84.64 31.73 84.64 31.99 84.44 32.66 84.22 32.72 84.18 32.76 84.12 32.77 84.05 32.77 83.99 32.79 83.94 32.94 83.82 33.15 83.73 33.38 83.62 34.73 83.43 35.09 83.28 35.79 83.2 36.01 83.13 36.22 83 36.52 82.69 36.66 82.59 36.87 82.53 36.76 82.35 36.75 82.2 36.77 82.04 36.72 81.82 36.83 81.86 36.85 81.87 36.93 81.92 37.02 81.99 37.09 82.06 37.1 82.13 37.08 82.35 37.09 82.42 37.13 82.44 37.23 82.43 37.47 82.62 37.65 82.55 37.73 82.51 37.82 82.45 37.97 82.53 37.97 82.64 37.92 82.69 37.87 82.79 37.83 82.87 37.8 83.15 37.49 83.29 37.1 83.38 36.7 83.59 36.36 83.64 36.21 83.86 34.9 84.57 34.68 84.65 34.49 84.72 34.49 84.72 34.49 84.72 34.39 84.88 34.31 85.04 34.21 85.11 34.11 85.15 33.86 85.32 33.66 85.45 33.66 85.45 33.66 85.45 34.33 85.39 36.38 84.35 36.87 84.4 36.74 84.49 36.65 84.55 36.27 84.72 36.07 84.88 35.6 85.41 35.41 85.57 35.18 85.68 34.81 85.78 34.62 85.92 34.24 86.3 34.04 86.43 33.81 86.51 33.89 86.67 33.94 86.71 34.03 86.74 34.03 86.85 33.99 86.92 33.97 87 33.95 87.22 34.03 87.09 34.1 87.22 34.1 87.22 34.1 87.22 34.41 86.94 34.5 86.9 34.47 87.09 35.2 86.74 35.15 86.73 35.12 86.7 35.05 86.62 35.63 86.1 35.7 85.95 35.85 86.03 35.98 86.22 36 86.39 36.18 86.4 36.3 86.34 36.5 86.15 36.58 86.14 36.76 86.15 36.76 86.15 36.8 86.1 36.82 85.93 36.86 85.86 37.61 85.69 37.92 85.55 37.92 85.55 37.83 85.34 37.97 85.28 38.01 85.28 38.16 85.31 38.25 85.35 38.33 85.4 38.41 85.51 38.4 85.53 38.36 85.75 38.29 85.94 38.28 86.1 38.41 86.28 38.63 86.08 38.73 85.96 38.77 85.86 39.11 85.66 39.2 85.57 39.22 85.63 39.23 85.64 39.25 85.66 39.28 85.69 39.15 85.82 39 85.92 38.88 86 38.77 86.15 38.67 86.38 38.72 86.44 38.72 86.44 38.84 86.38 38.99 86.28 38.92 86.45 38.84 86.57 38.75 86.66 38.62 86.74 38.62 86.74 38.97 86.74 39.12 86.69 39.24 86.57 39.33 86.5 39.41 86.51 39.47 86.49 39.49 86.33 39.79 86.15 39.81 86.24 39.84 86.31 39.86 86.39 39.87 86.51 39.87 86.51 39.87 86.51 39.99 86.44 40.09 86.47 40.18 86.52 40.3 86.51 40.39 86.4 40.44 86.26 40.51 86.15 40.66 86.15 40.66 86.04 40.63 85.87 40.72 85.85 40.99 85.92 41.16 85.89 41.32 85.79 41.45 85.64 41.54 85.45 41.54 85.45 41.45 85.37 41.4 85.34 41.4 85.22 41.53 85.25 41.77 85.4 41.91 85.45 42.49 85.32 42.65 85.23 42.78 85.22 42.9 85.26 43.11 85.41 43.18 85.45 43.21 85.52 43.3 85.65 43.4 85.69 43.4 85.69 43.4 85.69 43.43 85.53 43.44 85.51 43.47 85.49 43.5 85.47 43.88 85.34 43.98 85.14 44.09 84.85 44.24 84.65 44.46 84.75 44.53 84.67 44.6 84.68 44.66 84.71 44.68 84.72 44.79 84.75 45.18 84.75 45.27 84.82 45.34 84.94 45.42 85 45.42 85 45.42 85 45.48 84.96 45.51 84.93 45.92 84.98 45.87 84.79 45.88 84.63 45.95 84.5 46.06 84.4 46.06 84.4 46.06 84.4 45.84 84.29 45.89 84.25 45.91 84.23 45.93 84.21 45.98 84.18 45.98 84.18 45.98 84.05 45.59 84.05 45.41 83.98 45.36 83.92 45.26 83.81 46.53 83.94 47.05 83.8 47.23 83.81 47.38 83.93 47.53 84.28 47.67 84.4 47.67 84.4 47.65 84.2 47.6 83.95 47.59 83.76 47.62 83.65 47.78 83.24 47.84 83.22 47.93 83.18 48.01 83.1 48.03 83 47.98 82.87 47.92 82.89 47.82 83 47.7 82.96 47.49 82.94 47.38 82.87 47.38 82.77 47.87 82.77 48.1 82.9 48.17 83.24 48.17 83.24 48.17 83.24 48.22 83.22 48.33 83.15 48.38 82.96 48.33 82.76 48.17 82.64 48.3 82.6 48.47 82.66 48.62 82.81 48.64 82.86 48.69 83 48.69 83 48.69 83 48.79 82.86 48.83 82.81 48.96 82.71 49.36 82.61 49.65 82.45 49.76 82.27 50.11 81.88 50.14 81.79 50.16 81.74 50.16 81.74 50.14 81.65 50.09 81.56 50.08 81.47 50.11 81.4 50.29 81.12 49.92 81.12 49.99 81.06 50.06 81.03 50.22 80.99 50.17 80.96 50.08 80.88 50.08 80.75 50.15 80.75 50.15 80.75 50.15 80.65 50.02 80.61 50.02 80.61 49.63 80.65 49.82 80.11 49.55 79.91 49.11 79.84 48.76 79.71 48.97 79.58 49.02 79.58 49.19 79.56 49.63 79.58 49.82 79.52 50.02 79.43 50.2 79.38 50.29 79.47 50.29 79.58 50.73 79.57 50.95 79.61 51.09 79.71 51.18 79.58 51.26 79.52 51.33 79.56 51.38 79.71 51.35 79.73 51.3 79.77 51.27 79.8 51.24 79.84 51.17 80.06 51.27 80.07 51.34 80.1 51.39 80.14 51.46 80.18 51.32 80.34 51.18 80.44 51.03 80.5 51 80.51 50.88 80.53 50.88 80.53 50.92 80.69 50.95 80.75 50.85 80.78 50.76 80.84 50.69 80.93 50.66 81.05 50.7 81.11 50.81 81.13 50.93 81.12 51.23 81.14 51.9 81.08 52.3 80.92 52.77 80.82 53.1 80.75 53.28 80.65 53.08 80.41 53.24 80.2 53.79 79.95 54.24 79.86 54.48 79.75 54.59 79.58 54.47 79.53 54.15 79.24 54.18 79.24 54.38 79.22 54.55 79.11 54.71 78.93 54.85 78.71 54.88 78.56 54.89 78.15 54.92 78.06 55.04 78.14 55.09 78.29 55.11 78.45 55.14 78.52 56.27 78.67 56.33 78.59 56.33 78.41 56.42 78.17 56.64 78.06 57.2 78.12 57.4 78 57.49 77.93 57.6 77.91 57.69 77.87 57.73 77.75 57.76 77.23 57.96 77.08 58.1 76.98 58.11 76.95 58.16 76.77 58.15 76.7 58.07 76.68 57.75 76.54 57.56 76.48 57.39 76.51 57.29 76.64 57.25 76.36 57.38 76.13 57.58 75.98 57.76 75.92 57.8 75.97 57.8 75.97 57.83 76.09 57.88 76.21 57.95 76.27 58.05 76.25 58.11 76.17 58.15 76.08 58.2 76.04 58.6 75.95 59.33 75.55 61.37 75.33 61.77 75.43 61.77 75.43 61.97 75.43 62.18 75.33 62.25 75.24 62.3 75.12 62.37 75.02 62.5 74.98 62.59 74.99 62.73 75.08 62.84 75.1 62.84 75.1 62.8 75.02 62.77 74.96 62.74 74.91 62.69 74.86 62.69 74.75 62.83 74.73 62.96 74.76 63.2 74.86 62.9 75.27 62.84 75.46 62.84 75.46 62.84 75.46 63.06 75.4 63.54 75.39 63.78 75.33 63.97 75.19 64.27 74.76 64.44 74.62 64.44 74.5 64.18 74.51 64.15 74.34 64.27 73.97 64.29 73.91 64.29 73.91 64.25 73.74 64.11 73.45 64.07 73.37 64.06 73.19 63.99 72.72 64.13 72.9 64.28 73.44 64.4 73.56 64.52 73.62 64.64 73.76 64.74 73.92 64.81 74.04 64.99 74.75 64.99 74.92 64.87 75.05 64.73 75.14 64.61 75.25 64.51 75.46 64.69 75.57 64.83 75.42 64.95 75.21 65.06 75.1 65.83 74.62 65.75 74.5 65.78 74.5 65.81 74.5 65.86 74.51 65.89 74.51 65.89 74.5 65.89 74.37 65.89 74.37 65.86 74.38 65.82 74.38 65.8 74.38 65.75 74.37 65.83 74.27 65.86 74.17 65.89 73.91 65.83 73.91 65.79 73.96 65.68 74.04 65.7 73.91 65.7 73.86 65.69 73.8 65.68 73.66 65.75 73.56 65.96 73.66 66.17 73.56 66.35 73.38 66.47 73.2 66.45 73.47 66.35 73.69 66.19 73.84 66.03 73.91 66.03 73.91 66.03 74.04 66.24 74.09 66.99 73.98 67.78 74.22 67.97 74.32 68.25 74.62 68.44 74.64 68.89 74.37 69.03 74.34 69.39 74.27 69.47 74.22 69.58 74.14 69.69 74.14 69.83 74.27 69.61 74.27 69.61 74.27 69.61 74.37 70.08 74.37 70.11 74.36 70.12 74.33 70.13 74.32 70.26 74.21 70.29 74.17 70.35 74.08 70.41 74.04 70.54 74.06 70.55 74.13 70.46 74.35 70.38 74.42 70.35 74.52 70.49 74.62 70.59 74.64 70.59 74.64 70.59 74.64 70.67 74.61 70.78 74.5 70.91 74.31 71.22 73.56 70.67 73.01 70.46 72.61 70.64 72.25 70.64 72.14 70.64 72.14 70.64 72.14 70.38 72.56 70.25 72.72 70.19 72.53 70.09 72.39 69.76 72.32 69.83 72.14 69.75 71.91 69.63 71.72 69.48 71.58 69.32 71.52 69.32 71.42 69.4 71.33 69.49 71.27 69.58 71.21 69.68 71.18 69.61 71.49 69.84 71.56 70.45 71.51 70.55 71.55 70.64 71.63 70.71 71.76 70.73 71.53 70.71 71.22 70.72 70.91 70.81 70.64 71.06 70.19 71.22 69.96 71.4 69.86 71.59 69.62 72.04 68.88 72.24 68.56 72.38 68.25 72.41 67.51 72.38 67.24 72.27 66.74 72.26 66.48 72.31 66.15 72.81 65.26 73.03 64.75 72.97 64.36 73.22 63.52 73.34 63.27 73.46 63.1 73.92 62.67 73.84 62.54 74.2 61.7 74.32 61.58 74.37 61.5 74.48 61.17 74.54 61.09 74.67 61.03 74.64 60.9"/><polygon class="cls-1" points="34.84 55.94 34.74 56.08 34.74 56.14 34.7 56.18 34.63 56.18 34.59 56.18 34.58 56.27 34.72 56.24 34.95 56.29 34.95 56.29 34.95 56.07 34.97 56.01 34.84 55.94"/><polygon class="cls-1" points="47.71 24.75 48.17 24.61 48.13 24.31 48.1 24.25 48.04 24.14 48.04 24.14 48.04 24.14 48 24.11 47.91 24.05 47.74 23.98 47.68 23.89 47.62 23.85 47.54 23.87 47.45 23.98 47.47 24.01 47.5 24.05 47.52 24.1 47.5 24.11 47.46 24.12 47.37 24.19 47.3 24.24 47.32 24.34 47.33 24.38 47.34 24.41 47.33 24.41 47.32 24.43 47.3 24.49 47.3 24.61 47.48 24.74 47.71 24.75"/><polygon class="cls-1" points="35.49 55.24 35.85 55.12 35.87 55.03 35.77 54.98 35.68 54.99 35.49 54.87 35.34 54.85 35.23 54.88 35.15 54.94 35.13 54.96 35.1 55.01 35.22 55.23 35.49 55.24"/><polygon class="cls-1" points="34.15 57.69 34.04 57.85 34.19 57.95 34.39 58.1 35.65 58.68 35.84 58.62 35.86 58.48 35.81 58.47 35.78 58.48 35.53 58.35 35.52 58.23 35.62 58.1 35.54 57.97 35.26 57.87 35.06 57.84 34.8 57.89 34.67 57.89 34.4 57.69 34.15 57.69"/><polygon class="cls-2" points="80.59 33.8 80.66 33.62 80.59 33.58 80.26 33.05 80.21 32.8 80.15 32.08 80.08 31.93 79.9 31.83 79.77 31.56 79.61 30.92 79.58 30.73 79.57 30.57 79.53 30.47 79.42 30.43 79.32 30.37 79.19 30.11 79.13 30.05 77.85 30.26 77.62 30.24 77.45 30.11 77.29 30.05 77.06 30.15 76.69 30.43 76.32 30.61 76.21 30.73 75.98 31.11 75.86 31.23 75.8 31.34 75.72 31.43 75.59 31.42 75.56 31.33 75.55 31.17 75.51 31 75.38 30.92 75.77 30.2 75.97 29.92 76.25 29.67 76.54 29.51 77.17 29.32 77.48 29.16 77.72 28.9 77.88 28.49 77.9 27.98 77.78 27.39 77.58 27.09 77.25 26.8 76.93 26.71 76.76 27.02 77.44 27.75 77.63 28.14 77.56 28.14 77.31 27.76 77 27.64 76.73 27.46 76.61 26.96 76.58 26.69 76.51 26.46 76.41 26.28 76.32 26.13 76.23 26.04 76.06 25.89 76 25.81 75.93 25.67 75.86 25.38 75.81 25.25 75.6 24.93 75.35 24.69 75.06 24.54 74.75 24.49 74.73 24.36 74.92 23.68 74.94 23.34 74.86 23.17 74.72 23.05 74.57 22.98 74.43 22.96 74.23 22.98 74.03 22.95 73.94 22.78 74.1 22.38 74.17 22.08 74.21 21.04 74.1 20.84 73.71 20.4 73.62 20.35 73.53 20.21 73.32 20.11 72.9 20.04 72.69 20.07 72.29 20.25 72.05 20.29 71.88 20.24 70.85 19.65 70.58 19.58 70.18 19.85 69.92 19.77 69.54 19.54 69.3 19.57 69.07 19.69 68.87 19.87 68.7 20.1 68.53 20.23 67.79 20.29 66.58 20.86 65.2 20.93 64.99 20.84 64.53 20.53 64.36 20.54 64.3 20.8 64.23 21.64 64.11 21.82 63.98 21.95 63.86 22.26 63.77 22.6 63.78 22.84 63.62 22.95 63.39 23.25 63.27 23.34 62.91 23.39 62.54 23.34 62.08 23.1 61.88 23.08 61.53 23.18 61.34 22.86 61.34 22.86 61.36 22.79 61.33 22.87 61.25 22.89 61.12 22.94 61.03 23.06 60.95 23.19 60.86 23.29 60.18 23.39 60.05 23.49 59.95 23.61 59.65 24.08 59.69 24.25 59.66 24.27 59.6 24.3 59.56 24.43 59.62 24.9 59.61 25.05 59.52 25.2 59.31 25.29 59.22 25.4 59.18 25.62 59.23 26.09 59.23 26.28 59.12 26.68 58.95 27 58.18 27.97 58.11 28.22 58.09 28.68 58.12 28.81 58.18 28.88 58.18 28.92 58.04 28.98 57.93 28.97 57.73 28.86 57.41 28.96 57.04 28.86 56.85 28.97 56.48 29.34 56.12 29.54 55.76 29.57 55.41 29.38 55.1 29.12 54.96 29.11 54.59 29.48 54.06 29.74 54.24 29.89 54.3 29.93 54.22 30.2 54.31 30.39 54.49 30.51 54.67 30.56 54.76 30.62 54.87 30.85 54.95 30.94 55.04 30.95 55.21 30.82 55.28 30.79 55.43 30.88 55.77 31.19 55.94 31.25 56.12 31.17 56.28 31.04 56.4 31.07 56.42 31.44 55.98 31.59 54.92 32.6 54.52 32.76 54.1 32.74 53.29 32.55 53.07 32.8 52.85 33.12 52.72 33.39 52.67 33.47 52.55 33.59 52.28 33.74 51.72 33.91 51.47 34.05 51.6 34.17 51.63 34.31 51.66 34.46 51.76 34.61 52.01 34.89 52.47 35.53 52.72 35.8 52.98 35.94 53.29 35.94 53.52 36.51 53.66 36.77 53.84 36.98 54.02 37.05 54.44 37.11 54.59 37.23 54.66 37.52 54.7 38.33 54.84 38.6 55.05 38.73 55.64 38.81 56.27 38.77 56.46 38.81 57.23 39.38 57.3 39.5 57.32 39.66 57.35 39.81 57.48 39.9 58.61 40.17 58.84 40.12 59.28 39.78 59.55 39.8 59.43 39.95 59.46 39.98 59.57 39.97 59.66 39.99 59.74 40.15 59.76 40.23 59.8 40.24 59.96 40.2 60.48 40.38 60.66 40.36 60.41 39.85 60.41 39.73 60.49 39.63 60.81 39.44 60.85 39.49 60.82 39.62 60.8 39.78 60.8 39.99 60.79 40.15 60.83 40.23 60.98 40.15 61.08 40.04 61.15 39.88 61.18 39.7 61.13 39.52 61.34 39.41 61.33 39.31 61.23 39.23 61.18 39.16 61.24 38.98 61.31 38.86 61.39 38.77 61.52 38.67 62.1 38.52 62.33 38.37 62.26 38.07 62.41 37.87 62.03 37.54 62.09 37.29 61.73 37.12 61.71 36.92 61.76 36.91 61.84 36.93 61.9 36.86 61.91 36.86 61.99 36.69 61.99 36.68 61.96 36.65 61.92 36.56 61.89 36.45 61.91 36.36 61.98 36.32 62.17 36.36 62.26 36.35 62.61 36.09 63.12 35.27 63.43 34.96 63.77 34.93 64.13 35.12 64.79 35.67 64.86 35.79 64.96 36.1 65.04 36.15 65.17 36.16 65.24 36.23 65.46 36.86 65.48 37.12 65.4 37.31 65.21 37.41 65.59 37.6 65.68 37.71 65.73 37.87 65.77 38.04 65.83 38.23 66.01 38.51 66.22 38.76 66.44 38.95 66.67 39.1 66.8 39.11 66.89 39.02 66.97 38.9 67.08 38.83 67.21 38.85 67.32 38.91 67.54 39.1 67.78 39.39 67.85 39.71 67.75 40.05 67.51 40.36 67.62 40.57 67.61 40.77 67.44 41.19 67.6 41.33 67.89 41.68 68.04 41.76 68.1 41.72 68.21 41.55 68.27 41.49 68.35 41.47 68.51 41.54 68.6 41.55 69.5 41.21 69.8 41.19 69.81 41.23 69.85 41.3 69.91 41.38 69.98 41.43 70.06 41.43 70.33 41.33 70.58 41.29 70.65 41.23 70.69 41.08 70.69 40.92 70.67 40.79 70.68 40.67 70.82 40.43 70.91 40.45 70.99 40.57 71.12 40.66 71.26 40.63 71.41 40.55 71.57 40.53 71.73 40.67 71.8 40.54 72.03 40.64 72.34 40.66 72.63 40.76 72.75 41.09 72.89 41.1 73.7 41.41 73.61 41.43 73.4 41.53 73.4 41.65 73.59 41.78 73.76 41.81 74.17 41.78 74.31 41.71 74.77 41.36 75.1 41.01 75.54 40.79 75.73 40.54 75.84 40.25 75.94 39.89 76 39.52 76.03 39.17 76.01 38.48 76.07 38.26 76.28 38.18 76.49 38.14 76.95 37.97 77.4 37.92 78.02 37.98 78.15 38.11 78.19 38.26 78.27 38.28 78.36 38.23 78.44 38.18 78.51 37.81 78.56 37.79 78.68 37.82 78.73 37.81 79.08 37.44 79.36 37.02 79.49 36.5 79.39 35.81 79.08 35.48 78.63 35.6 78.13 35.9 77.7 36.06 77.82 35.87 78.21 35.55 78.29 35.38 78.59 34.42 78.51 34.31 78.56 34.19 78.58 34.14 78.59 34.07 78.45 34.02 78.39 33.86 78.39 33.65 78.44 33.43 78.11 33.25 78.18 33.16 78.41 33.12 78.59 33.05 78.47 32.95 78.07 32.92 77.99 32.86 77.9 32.77 77.78 32.69 77.63 32.68 77.73 32.57 77.82 32.42 77.85 32.23 77.78 32.05 77.78 31.93 78.09 31.95 78.38 32.11 79.12 32.82 79.31 33.13 79.42 33.55 79.46 34.12 79.41 34.4 79.16 34.71 79.09 34.93 79.11 35.13 79.19 35.33 79.3 35.49 79.42 35.56 79.53 35.92 79.63 36.17 79.76 36.31 79.9 36.28 80.03 36.02 80.19 35.93 80.04 35.73 80.09 35.59 80.24 35.46 80.34 35.32 80.38 35.02 80.31 34.72 80.37 34.5 80.58 34.18 80.63 34.07 80.63 33.97 80.6 33.9 80.59 33.8"/><path class="cls-1" d="M82,179A53.77,53.77,0,1,0,108,279.75a7,7,0,0,0,.56.66c3.45,3.44,11,1.53,16.77-4.28s7.73-13.32,4.28-16.77a5.76,5.76,0,0,0-.66-.56A53.77,53.77,0,0,0,82,179Zm29.44,83.21a41.63,41.63,0,1,1,12.2-29.45A41.38,41.38,0,0,1,111.4,262.17Z" transform="translate(-28.19 -178.96)"/><path class="cls-1" d="M122.86,284.74l28,33.23a8.65,8.65,0,0,0,12.68.58l4.18-4.13a8.64,8.64,0,0,0-.51-12.76l-33.25-28a29.5,29.5,0,0,1-11.11,11.1Z" transform="translate(-28.19 -178.96)"/><path class="cls-1" d="M194.28,262.15a6.69,6.69,0,0,1-1.79-.71,7.39,7.39,0,0,1-1.64-1.5,7.93,7.93,0,0,1-1-2L173,212.77h-4.19l-.24.65Q165,222.87,160.48,235c-3,8-5.75,15.3-8.26,21.79a12.75,12.75,0,0,1-1.39,2.74,8.36,8.36,0,0,1-1.91,1.81,6.52,6.52,0,0,1-1.94.79,15.27,15.27,0,0,1-2.11.39l-.92.07v4.51h20.73v-4.54l-1-.05a16.16,16.16,0,0,1-4.69-.88c-1-.37-1.55-.81-1.55-1.31a9.22,9.22,0,0,1,.16-1.43,23.67,23.67,0,0,1,.61-2.42c.32-1.07.69-2.22,1.1-3.48.35-1.08.8-2.33,1.33-3.74h16.07l3.89,10.91a3.24,3.24,0,0,1,.15.63c0,.21,0,.39.06.55a3.1,3.1,0,0,1-1.09.49,20.22,20.22,0,0,1-4.32.69l-.93.06v4.52h22.67v-4.55l-1,0A9.29,9.29,0,0,1,194.28,262.15ZM174.74,244H162.66l6-16.16Z" transform="translate(-28.19 -178.96)"/><path class="cls-1" d="M234.49,261.88a3.2,3.2,0,0,1-1.46-.38,3.14,3.14,0,0,1-1.06-1.15,3.65,3.65,0,0,1-.35-1.69V210l-1.13-1.17-15.56.88v4.13l.93.07a31.43,31.43,0,0,1,3.48.44,5.73,5.73,0,0,1,2.23.82,3.33,3.33,0,0,1,1,1.47A6.7,6.7,0,0,1,223,219v10.86a20.56,20.56,0,0,0-2.75-.95,16.8,16.8,0,0,0-17.31,5,20.67,20.67,0,0,0-3.75,6.42,22.08,22.08,0,0,0-1.36,7.72,25.22,25.22,0,0,0,1.26,8.11,20.09,20.09,0,0,0,3.45,6.34,15.6,15.6,0,0,0,5.11,4.1,13.71,13.71,0,0,0,6.13,1.46,13.13,13.13,0,0,0,6-1.45,16.47,16.47,0,0,0,3.33-2.21v1.71l1.15,1.11,13.47-.89v-4.3l-1,0C236.07,262,235.31,262,234.49,261.88ZM223,238.31v20.46a14.59,14.59,0,0,1-2.67,2.34,7,7,0,0,1-4.06,1.09,7.23,7.23,0,0,1-4-1.07,9,9,0,0,1-2.82-3,13.92,13.92,0,0,1-1.77-4.33,24.77,24.77,0,0,1-.53-5.32,29.18,29.18,0,0,1,.72-6.73,16.16,16.16,0,0,1,1.92-4.87,9.56,9.56,0,0,1,2.82-2.93,6,6,0,0,1,3.33-1,6.93,6.93,0,0,1,2.78.51,8,8,0,0,1,2.09,1.32,7.85,7.85,0,0,1,1.4,1.77A9.17,9.17,0,0,1,223,238.31Z" transform="translate(-28.19 -178.96)"/><path class="cls-1" d="M267.81,251.13a10.1,10.1,0,0,0-2.44-3.35,15.39,15.39,0,0,0-3.62-2.41,33.84,33.84,0,0,0-4.48-1.83c-1.51-.51-2.82-1-3.9-1.42a12.5,12.5,0,0,1-2.44-1.25,4,4,0,0,1-1.31-1.48,5.17,5.17,0,0,1-.44-2.28,3.76,3.76,0,0,1,1.32-2.89,5.5,5.5,0,0,1,3.85-1.24,7.09,7.09,0,0,1,5.24,2.14,10.79,10.79,0,0,1,2.89,5.77l.16.81h4.29l-.62-13.52h-4.14l-.64,1.52a19.33,19.33,0,0,0-2.7-.91,17.92,17.92,0,0,0-4.41-.57,12.65,12.65,0,0,0-9.14,3.33,11,11,0,0,0-3.46,8.17,10.18,10.18,0,0,0,1.1,4.83,11.22,11.22,0,0,0,2.76,3.43,16,16,0,0,0,3.69,2.24,35.8,35.8,0,0,0,3.77,1.43c1.33.43,2.57.86,3.68,1.31a11.71,11.71,0,0,1,2.61,1.38,4.61,4.61,0,0,1,1.41,1.6,5.49,5.49,0,0,1-1,6,6.7,6.7,0,0,1-4.53,1.35,7.61,7.61,0,0,1-3.8-1,11.37,11.37,0,0,1-3-2.48,15.17,15.17,0,0,1-2.07-3.22,13.1,13.1,0,0,1-1.11-3.08l-.16-.8h-4.27l.41,14.47h4.35l.51-1.74a24.76,24.76,0,0,0,2.66,1.36,15.91,15.91,0,0,0,15.93-2.2,11.36,11.36,0,0,0,3.93-8.89A11.16,11.16,0,0,0,267.81,251.13Z" transform="translate(-28.19 -178.96)"/><path class="cls-2" d="M314.41,227.4h-2.63a18.83,18.83,0,0,0-3.07-6.14q-2.32-3.27-4.46-3.6c-.73-.1-1.59-.17-2.58-.22s-2.12-.07-3.38-.07H290v20.72h5.72a11.33,11.33,0,0,0,4-.57,6.24,6.24,0,0,0,2.46-1.72,7.7,7.7,0,0,0,1.29-2.49,15.92,15.92,0,0,0,.75-3.62h2.63V250h-2.63a16.56,16.56,0,0,0-.72-3.63,9.49,9.49,0,0,0-1.32-3,5.28,5.28,0,0,0-2.65-1.83,13.16,13.16,0,0,0-3.85-.49H290v17.74a5,5,0,0,0,.45,2.15,3.46,3.46,0,0,0,1.61,1.52,12.62,12.62,0,0,0,2.28.62,17.3,17.3,0,0,0,2.67.39v2.59H275.4v-2.59c.7,0,1.64-.12,2.8-.23a8.1,8.1,0,0,0,2.28-.42,3,3,0,0,0,1.53-1.4,4.93,4.93,0,0,0,.47-2.23V222a5.47,5.47,0,0,0-.39-2.13,3,3,0,0,0-1.61-1.51,12.32,12.32,0,0,0-2.54-.84,18.83,18.83,0,0,0-2.54-.43V214.5h39Z" transform="translate(-28.19 -178.96)"/><path class="cls-2" d="M334.67,266.08H318v-2.4l1.66-.15a6.06,6.06,0,0,0,1.49-.29,2.54,2.54,0,0,0,1.45-1.14,4.2,4.2,0,0,0,.48-2.13V237.86a4.46,4.46,0,0,0-.51-2.12,4.68,4.68,0,0,0-1.42-1.62,6.48,6.48,0,0,0-1.93-.74,13.5,13.5,0,0,0-2.31-.38v-2.4l12.2-.8.49.51v29.22a4.2,4.2,0,0,0,.47,2.11,2.78,2.78,0,0,0,1.48,1.24,12.65,12.65,0,0,0,1.49.52,8.61,8.61,0,0,0,1.64.28Zm-4.38-50.42a5.41,5.41,0,0,1-1.32,3.62,4.09,4.09,0,0,1-6.34.07,4.88,4.88,0,0,1-1.31-3.36,5.09,5.09,0,0,1,1.31-3.49,4,4,0,0,1,3.1-1.49,4.26,4.26,0,0,1,3.28,1.4A4.67,4.67,0,0,1,330.29,215.66Z" transform="translate(-28.19 -178.96)"/><path class="cls-2" d="M377.11,266.08H360.22v-2.4l1.77-.15a6.38,6.38,0,0,0,1.6-.29,2.55,2.55,0,0,0,1.45-1.15,4.14,4.14,0,0,0,.47-2.12V241.54a8.92,8.92,0,0,0-1.74-5.89,5.34,5.34,0,0,0-4.23-2.07,9.36,9.36,0,0,0-3.41.6,12.1,12.1,0,0,0-2.74,1.47,7.89,7.89,0,0,0-1.84,1.8,14.93,14.93,0,0,0-1,1.55v20.61a3.79,3.79,0,0,0,.49,2,3.18,3.18,0,0,0,1.47,1.24,6.77,6.77,0,0,0,1.59.54,14.8,14.8,0,0,0,1.77.26v2.4H339v-2.4l1.66-.15a6.06,6.06,0,0,0,1.49-.29,2.54,2.54,0,0,0,1.45-1.14A4.2,4.2,0,0,0,344,260V237.86a5.08,5.08,0,0,0-.51-2.27,4.46,4.46,0,0,0-1.42-1.68,4.6,4.6,0,0,0-1.58-.64,14,14,0,0,0-2-.27v-2.4l11.5-.8.49.51v5.05h.17c.56-.58,1.26-1.28,2.11-2.09a18.42,18.42,0,0,1,2.38-2,12,12,0,0,1,3.08-1.45,12.94,12.94,0,0,1,4-.58q5,0,7.38,3.21a14,14,0,0,1,2.4,8.56v18.65a4.31,4.31,0,0,0,.42,2.05A2.81,2.81,0,0,0,374,263a9.58,9.58,0,0,0,1.46.51,10.47,10.47,0,0,0,1.69.22Z" transform="translate(-28.19 -178.96)"/><path class="cls-2" d="M419.21,265.42l-12.09.8-.53-.51v-3.34l-.28-.07a14.43,14.43,0,0,1-4.5,3.45,12.2,12.2,0,0,1-5.51,1.34,12.67,12.67,0,0,1-5.69-1.36,14.5,14.5,0,0,1-4.77-3.83,19.32,19.32,0,0,1-3.28-6,24,24,0,0,1-1.2-7.78,21.14,21.14,0,0,1,1.29-7.38,19.46,19.46,0,0,1,3.57-6.1,15.7,15.7,0,0,1,5.23-3.89,14.73,14.73,0,0,1,6.32-1.45,18,18,0,0,1,4.74.63,16.51,16.51,0,0,1,4,1.62V219a7.57,7.57,0,0,0-.49-2.79,4.22,4.22,0,0,0-1.37-1.91,6.57,6.57,0,0,0-2.64-1,33.27,33.27,0,0,0-3.6-.46v-2.25l14.16-.8.53.54v48.31a4.6,4.6,0,0,0,.47,2.16,4.17,4.17,0,0,0,1.39,1.51,4.26,4.26,0,0,0,1.93.55c.84.07,1.61.12,2.31.14Zm-12.69-6.29v-21a9.32,9.32,0,0,0-.91-2,9,9,0,0,0-1.57-2,8.86,8.86,0,0,0-2.38-1.51,7.84,7.84,0,0,0-3.18-.6,7.07,7.07,0,0,0-3.87,1.12,10.57,10.57,0,0,0-3.13,3.24,17.06,17.06,0,0,0-2.05,5.18,30,30,0,0,0-.75,7,25.52,25.52,0,0,0,.56,5.54,14.83,14.83,0,0,0,1.89,4.64,10.1,10.1,0,0,0,3.13,3.27,8.17,8.17,0,0,0,4.53,1.23,8,8,0,0,0,4.64-1.27A15.27,15.27,0,0,0,406.52,259.13Z" transform="translate(-28.19 -178.96)"/><path class="cls-2" d="M453.28,257.64a18.22,18.22,0,0,1-5.82,6.84,14.31,14.31,0,0,1-8.38,2.54,16.52,16.52,0,0,1-7.31-1.53,14.44,14.44,0,0,1-5.17-4.14,18,18,0,0,1-3-6.11,26.83,26.83,0,0,1-1-7.37,22.64,22.64,0,0,1,1.07-6.86,19.57,19.57,0,0,1,3.14-6,15.18,15.18,0,0,1,5-4.16,13.92,13.92,0,0,1,6.64-1.58,15.59,15.59,0,0,1,6.49,1.23,11.8,11.8,0,0,1,4.38,3.38,13.88,13.88,0,0,1,2.4,4.8,22,22,0,0,1,.79,6V247H429.55a28.79,28.79,0,0,0,.65,6.41,15.56,15.56,0,0,0,2.05,5.07,10,10,0,0,0,3.57,3.33,10.76,10.76,0,0,0,5.26,1.22,9.44,9.44,0,0,0,5.38-1.52,14.8,14.8,0,0,0,4.36-5.46ZM445.53,244a30.84,30.84,0,0,0-.33-4.35,13.63,13.63,0,0,0-1.07-3.88,7.3,7.3,0,0,0-2.21-2.72,5.86,5.86,0,0,0-3.61-1.05,7.45,7.45,0,0,0-6.12,3.17q-2.43,3.18-2.64,8.83Z" transform="translate(-28.19 -178.96)"/><path class="cls-2" d="M483.74,234.85a6.2,6.2,0,0,1-.88,3.29,2.94,2.94,0,0,1-2.7,1.44,4,4,0,0,1-3-1.06,3.23,3.23,0,0,1-1-2.32,8.13,8.13,0,0,1,.12-1.46c.08-.43.16-.87.23-1.3a7.62,7.62,0,0,0-3.86,1.38,11.68,11.68,0,0,0-3.75,3.92v20.87a4,4,0,0,0,.48,2.07,2.88,2.88,0,0,0,1.49,1.2,9,9,0,0,0,2.26.54c.92.12,1.72.21,2.4.26v2.4H457.27v-2.4l1.67-.15a6.06,6.06,0,0,0,1.49-.29,2.54,2.54,0,0,0,1.45-1.14,4.2,4.2,0,0,0,.47-2.13V237.86a5.3,5.3,0,0,0-.5-2.21,4.37,4.37,0,0,0-1.42-1.74,4.68,4.68,0,0,0-1.58-.64,14.26,14.26,0,0,0-2-.27v-2.4l11.49-.8.49.51v5.05h.18a16,16,0,0,1,4.84-4.47,9.93,9.93,0,0,1,4.87-1.53,4.68,4.68,0,0,1,3.59,1.49A5.68,5.68,0,0,1,483.74,234.85Z" transform="translate(-28.19 -178.96)"/></svg>