<svg id="Слой_1" data-name="Слой 1" xmlns="http://www.w3.org/2000/svg" viewBox="0 0 150 150"><defs><style>.cls-1{fill:none;}</style></defs><title>icons1</title><rect class="cls-1" width="150" height="150"/><path d="M97.89,36.25l4.27-21.36H80.65c-.7-2.44-3.71-4.27-7.33-4.27S66.69,12.45,66,14.89H44.48l4.27,21.36Z"/><path d="M101.73,45.67h-56c-18.62,10.92-31.27,32.39-31.27,57.1A68.68,68.68,0,0,0,24.57,139h98.28A68.59,68.59,0,0,0,133,102.77C133,78.06,120.35,56.59,101.73,45.67ZM83.36,111.52a14.63,14.63,0,0,1-5.54,2.58v4.41H70.16v-3.78a25.92,25.92,0,0,1-10.26-2.21v-6.67A32,32,0,0,0,66.17,108a26.61,26.61,0,0,0,6.18.8c2.8,0,4.86-.54,6.19-1.6a5.19,5.19,0,0,0,2-4.28,5.36,5.36,0,0,0-1.83-4.1q-1.83-1.68-7.56-4-5.9-2.39-8.32-5.46A11.55,11.55,0,0,1,60.4,82a10.34,10.34,0,0,1,3.84-8.5,13.83,13.83,0,0,1,5.92-2.63V66.16h7.66v4.47a31.53,31.53,0,0,1,9.06,2.52L84.63,78.9a27,27,0,0,0-10.27-2.42A7.89,7.89,0,0,0,69.17,78a4.92,4.92,0,0,0-1.78,4,5.53,5.53,0,0,0,.71,2.87,7.32,7.32,0,0,0,2.33,2.26,39.49,39.49,0,0,0,5.85,2.8,32.66,32.66,0,0,1,7,3.69,11,11,0,0,1,3.24,3.87,11.63,11.63,0,0,1,1,5.08A10.84,10.84,0,0,1,83.36,111.52Z"/></svg>