<svg id="Слой_1" data-name="Слой 1" xmlns="http://www.w3.org/2000/svg" viewBox="0 0 150 150"><defs><style>.cls-1{fill:none;}</style></defs><title>icons</title><g id="Bath"><rect x="2" y="40.02" width="138.52" height="10.85"/><path d="M5.77,55.38c1.42.22,6.23,3,6.24,30.7,0,0,0,0,0,0,.07.58,2.11,16,19.56,20.54l-5.19,4.23a2.49,2.49,0,0,0-.3,3.6l.22.24a2.73,2.73,0,0,0,3.75.29l8.05-6.57a2.7,2.7,0,0,0,.53-.65h66.18l.18,0a2.65,2.65,0,0,0,.55.67l8,6.57a2.73,2.73,0,0,0,3.75-.29l.21-.24a2.48,2.48,0,0,0-.3-3.6L112,106.61c17.24-4.64,19.26-19.9,19.33-20.48v0c0-27.71,4.82-30.48,6.24-30.7H5.77Z"/><path d="M148.61,113.23H149A1,1,0,0,0,148.61,113.23Z"/><path d="M16.42,113.23h.4A1.05,1.05,0,0,0,16.42,113.23Z"/></g><rect class="cls-1" width="149" height="149"/></svg>