<svg id="Слой_1" data-name="Слой 1" xmlns="http://www.w3.org/2000/svg" viewBox="0 0 150 150"><defs><style>.cls-1{fill:none;}</style></defs><title>icons</title><path d="M141.65,89.51l-10.26-21.4-9.86-20.53h12.55V35.67H83.94a10.28,10.28,0,0,0-17.85,0H16V47.58H28L17.92,68,7.23,89.67c-2.16,3.51-3,4.78-3.69,7.48l0,0h0a18.15,18.15,0,0,0-.53,4.3c0,12.59,13,22.79,29,22.79s29-10.2,29-22.79c0-4.39-2.07-8.29-4.35-12L46.41,68.11,36.56,47.58H67.2a10.23,10.23,0,0,0,15.63,0h30.11L102.89,68,92.2,89.67c-2.16,3.51-3,4.78-3.69,7.48l0,0h0a18.15,18.15,0,0,0-.53,4.3c0,12.59,13,22.79,29,22.79s29-10.2,29-22.79C146,97.08,143.93,93.18,141.65,89.51ZM51,98.83l-37.91.52L31.45,58ZM98,99.35,116.42,58l19.52,40.88Z"/><rect class="cls-1" width="150" height="150"/></svg>