<svg xmlns="http://www.w3.org/2000/svg" xmlns:xlink="http://www.w3.org/1999/xlink" width="100" height="100" viewBox="0 0 100 100"><defs><style>.a{clip-path:url(#b);}.b{fill:none;}.c{fill-rule:evenodd;}</style><clipPath id="b"><rect width="100" height="100"/></clipPath></defs><g id="a" class="a"><g transform="translate(6 5)"><rect class="b" width="42.73" height="42.73" transform="translate(0 0)"/><path class="c" d="M37.23,53.99A15.816,15.816,0,0,0,53.074,38.145c0-8.488-6.79-16.41-15.844-16.41A15.816,15.816,0,0,0,21.386,37.58C21.386,46.067,28.742,53.99,37.23,53.99Zm-26.6-43.005A37.612,37.612,0,0,1,63.826,64.175l-26.6,26.6-26.6-26.6A38.638,38.638,0,0,1,10.635,10.984Z" transform="translate(6.975 0.05)"/></g></g></svg>