<svg xmlns="http://www.w3.org/2000/svg" xmlns:xlink="http://www.w3.org/1999/xlink" width="100" height="100" viewBox="0 0 100 100"><defs><style>.a{clip-path:url(#b);}.b{fill:none;}.c{fill:#e5801a;fill-rule:evenodd;}</style><clipPath id="b"><rect width="100" height="100"/></clipPath></defs><g id="a" class="a"><g transform="translate(-1)"><rect class="b" width="102" height="102"/><path class="c" d="M70.3,84.733c38.533,0,59.5-31.733,59.5-59.5V22.4A46.063,46.063,0,0,0,140,11.633a47.041,47.041,0,0,1-11.9,3.4A22.047,22.047,0,0,0,137.167,3.7a51.976,51.976,0,0,1-13.033,5.1,20.238,20.238,0,0,0-15.3-6.8A21.29,21.29,0,0,0,87.867,22.967a11.048,11.048,0,0,0,.567,4.533C70.867,26.367,55.567,18.433,45.367,5.4a21.7,21.7,0,0,0-2.833,10.767c0,7.367,3.967,13.6,9.067,17.567A19.1,19.1,0,0,1,41.967,30.9h0a20.71,20.71,0,0,0,17,20.4,17.47,17.47,0,0,1-5.667.567,9.644,9.644,0,0,1-3.967-.567c2.833,8.5,10.2,14.167,19.833,14.733A42.784,42.784,0,0,1,43.1,75.1a15.688,15.688,0,0,1-5.1-.567c9.067,6.8,20.4,10.2,32.3,10.2" transform="translate(-38 7)"/></g></g></svg>